<svg width="25" height="25" viewBox="0 0 25 25" fill="none" xmlns="http://www.w3.org/2000/svg">
<path d="M15.2922 2.79382L17.2192 4.42047C17.4269 4.59583 17.7359 4.57659 17.9203 4.37684L19.3422 2.83644C19.5387 2.62358 19.5177 2.28974 19.2962 2.10315L17.3927 0.500316C17.1874 0.327371 16.8829 0.344053 16.6976 0.538405L15.2521 2.05503C15.0502 2.26684 15.0685 2.60501 15.2922 2.79382Z" fill="#1CB5B9"/>
<path d="M12.6266 6.75573L14.5536 8.38239C14.7614 8.55774 15.0703 8.53851 15.2547 8.33875L16.6766 6.79836C16.8731 6.58549 16.8521 6.25165 16.6306 6.06507L14.7272 4.46223C14.5219 4.28929 14.2174 4.30597 14.0322 4.50032L12.5866 6.01695C12.3847 6.2288 12.403 6.56698 12.6266 6.75573Z" fill="#1CB5B9"/>
<path d="M18.6046 6.75573L20.5316 8.38239C20.7394 8.55774 21.0483 8.53851 21.2327 8.33875L22.6546 6.79836C22.8511 6.58549 22.8301 6.25165 22.6086 6.06507L20.7052 4.46223C20.4999 4.28929 20.1954 4.30597 20.0102 4.50032L18.5647 6.01695C18.3627 6.2288 18.381 6.56698 18.6046 6.75573Z" fill="#1CB5B9"/>
<path d="M19.296 2.10315L17.3927 0.500316C17.1873 0.327371 16.8828 0.344053 16.6976 0.538405L16.3628 0.889646L17.8038 2.10315C18.0254 2.28974 18.0464 2.62358 17.8499 2.83644L16.7518 4.02603L17.2191 4.42047C17.4268 4.59583 17.7358 4.57659 17.9202 4.37684L19.3421 2.83644C19.5386 2.62358 19.5176 2.28974 19.296 2.10315Z" fill="#009498"/>
<path d="M16.6305 6.06507L14.7271 4.46223C14.5218 4.28929 14.2173 4.30597 14.0321 4.50032L13.6973 4.85156L15.1383 6.06507C15.3599 6.25165 15.3809 6.58549 15.1844 6.79836L14.0863 7.98795L14.5536 8.38239C14.7614 8.55774 15.0703 8.53851 15.2547 8.33875L16.6767 6.79836C16.873 6.58549 16.8521 6.25165 16.6305 6.06507Z" fill="#009498"/>
<path d="M22.6085 6.06507L20.7051 4.46223C20.4998 4.28929 20.1953 4.30597 20.0101 4.50032L19.6753 4.85156L21.1163 6.06507C21.3379 6.25165 21.3589 6.58549 21.1624 6.79836L20.0643 7.98795L20.5316 8.38239C20.7394 8.55774 21.0483 8.53851 21.2328 8.33875L22.6547 6.79836C22.851 6.58549 22.8301 6.25165 22.6085 6.06507Z" fill="#009498"/>
<path d="M23.7488 9.69233L22.4825 10.7608C22.3592 10.8647 22.2882 11.0177 22.2882 11.1789V13.7672C22.2882 13.979 22.1659 14.1727 21.974 14.2625C20.2691 15.0599 19.8402 12.9284 19.733 11.709C19.6999 11.333 19.3061 11.1021 18.9622 11.2579L18.2742 11.5696C18.1036 11.6468 17.9847 11.8062 17.9581 11.9915C17.7937 13.1402 17.7698 14.02 16.4438 14.4841C15.8845 14.6799 15.1568 14.6595 14.6533 14.4303C14.5226 14.3708 14.4223 14.2603 14.372 14.1258C14.1691 13.5827 13.5471 11.953 12.9153 10.6504C12.7423 10.2937 12.2585 10.235 12.004 10.5388L10.4566 12.3857C10.3284 12.5388 10.2936 12.7495 10.3661 12.9355L12.1131 17.4263C12.1701 17.5728 12.1611 17.7364 12.0892 17.8761C11.7244 18.5847 10.3682 20.6628 7.00765 20.6628C3.10032 20.6628 1.86522 17.7851 3.30219 14.0121C3.39602 13.7657 3.30171 13.4873 3.07679 13.3499L2.5973 13.0569C2.34056 12.9 2.00528 12.9794 1.84699 13.2353C1.29161 14.1331 0.157227 16.2459 0.157227 18.5267C0.157227 21.5468 1.92505 24.4195 6.78664 24.4195C10.9197 24.4195 13.4321 20.4439 14.0923 19.2524C14.1989 19.0599 14.411 18.9501 14.6297 18.9748C16.4025 19.1756 17.3533 18.1747 17.7949 17.471C17.9769 17.1811 18.3775 17.1322 18.6294 17.3641C21.2849 19.8094 23.5646 16.7757 24.4662 15.2653C24.7382 14.8096 24.8668 14.2829 24.8393 13.7529L24.648 10.082C24.6245 9.63043 24.0944 9.40073 23.7488 9.69233Z" fill="#1CB5B9"/>
<path d="M24.8394 13.7527L24.6482 10.0817C24.6264 9.66493 24.1733 9.4375 23.8319 9.63412C23.7848 11.0646 23.6291 13.537 23.114 14.2481C22.1602 15.565 20.3818 17.1842 17.8337 15.8716C17.5294 15.7149 17.1812 15.6886 16.9993 15.9785C16.5577 16.6822 15.6069 17.683 13.834 17.4823C13.6153 17.4576 13.4033 17.5674 13.2966 17.7599C12.6365 18.9514 10.1241 22.927 5.99099 22.927C3.27147 22.927 1.52032 22.0279 0.504883 20.7072C1.22626 22.796 3.13246 24.4193 6.78687 24.4193C10.9199 24.4193 13.4323 20.4436 14.0925 19.2521C14.1991 19.0596 14.4112 18.9498 14.6299 18.9746C16.4028 19.1753 17.3536 18.1745 17.7952 17.4707C17.9771 17.1808 18.3778 17.132 18.6296 17.3638C21.2851 19.8091 23.5649 16.7755 24.4664 15.265C24.7383 14.8094 24.8671 14.2827 24.8394 13.7527Z" fill="#009498"/>
</svg>
