<svg width="27" height="27" viewBox="0 0 27 27" fill="none" xmlns="http://www.w3.org/2000/svg">
<path d="M15.9631 3.73633L17.9616 5.27424C18.177 5.44003 18.4848 5.40685 18.66 5.19897L20.0108 3.59589C20.1975 3.37437 20.1615 3.04182 19.9317 2.86543L17.9578 1.35025C17.7449 1.18676 17.4415 1.21718 17.2652 1.41971L15.8897 3.00011C15.6975 3.22082 15.7311 3.55782 15.9631 3.73633Z" fill="#DD6330"/>
<path d="M13.4791 7.81446L15.4776 9.35237C15.6931 9.51816 16.0009 9.48498 16.176 9.2771L17.5269 7.67402C17.7136 7.45249 17.6775 7.11995 17.4478 6.94356L15.4739 5.42837C15.261 5.26488 14.9576 5.29531 14.7813 5.49783L13.4058 7.07823C13.2136 7.29899 13.2472 7.636 13.4791 7.81446Z" fill="#DD6330"/>
<path d="M19.4508 7.54493L21.4493 9.08284C21.6648 9.24863 21.9726 9.21545 22.1477 9.00757L23.4986 7.40449C23.6852 7.18296 23.6492 6.85042 23.4195 6.67403L21.4456 5.15884C21.2327 4.99535 20.9293 5.02578 20.753 5.2283L19.3775 6.8087C19.1853 7.02946 19.2189 7.36646 19.4508 7.54493Z" fill="#DD6330"/>
<path d="M19.9314 2.86533L17.9575 1.35014C17.7446 1.18665 17.4411 1.21708 17.2649 1.4196L16.9463 1.78561L18.4407 2.93276C18.6705 3.10914 18.7066 3.44169 18.5199 3.66322L17.4767 4.90122L17.9613 5.27414C18.1768 5.43993 18.4845 5.40675 18.6597 5.19887L20.0106 3.59579C20.1972 3.37426 20.1612 3.04171 19.9314 2.86533Z" fill="#C05325"/>
<path d="M17.4475 6.94345L15.4737 5.42827C15.2607 5.26478 14.9573 5.2952 14.781 5.49772L14.4624 5.86374L15.9568 7.01088C16.1866 7.18727 16.2227 7.51982 16.036 7.74134L14.9928 8.97934L15.4775 9.35226C15.6929 9.51805 16.0007 9.48487 16.1759 9.27699L17.5268 7.67391C17.7133 7.45239 17.6773 7.11984 17.4475 6.94345Z" fill="#C05325"/>
<path d="M23.4197 6.67392L21.4458 5.15873C21.2329 4.99525 20.9295 5.02567 20.7532 5.22819L20.4346 5.5942L21.929 6.74135C22.1588 6.91774 22.1948 7.25028 22.0082 7.47181L20.965 8.70981L21.4496 9.08273C21.6651 9.24852 21.9729 9.21534 22.1481 9.00746L23.4989 7.40438C23.6855 7.18286 23.6495 6.85031 23.4197 6.67392Z" fill="#C05325"/>
<path d="M24.7227 10.2453L23.506 11.3698C23.3876 11.4792 23.3235 11.6353 23.3308 11.7963L23.4477 14.3819C23.4573 14.5936 23.344 14.7926 23.1563 14.8909C21.4892 15.7646 20.9644 13.6546 20.8022 12.4414C20.7521 12.0672 20.3483 11.8544 20.0118 12.0255L19.3386 12.368C19.1717 12.4529 19.0601 12.6174 19.0419 12.8038C18.9295 13.9587 18.9454 14.8387 17.6417 15.3623C17.0918 15.5831 16.364 15.5956 15.8506 15.3894C15.7174 15.3358 15.6122 15.23 15.5559 15.0979C15.3287 14.5646 14.6336 12.9646 13.9436 11.6919C13.7546 11.3434 13.2687 11.3066 13.0282 11.6216L11.5658 13.5366C11.4447 13.6952 11.4195 13.9073 11.5002 14.0898L13.4484 18.4972C13.512 18.6409 13.5104 18.8047 13.4449 18.9476C13.1125 19.672 11.8516 21.8091 8.49445 21.961C4.59111 22.1376 3.22723 19.3186 4.49224 15.4846C4.57484 15.2342 4.46805 14.9604 4.23714 14.8332L3.7449 14.5622C3.48134 14.4171 3.14999 14.5116 3.00342 14.7743C2.48918 15.6963 1.45143 17.8582 1.5545 20.1367C1.69097 23.1537 3.5868 25.9436 8.44342 25.7239C12.5723 25.5372 14.9025 21.452 15.5081 20.2319C15.6059 20.0348 15.8128 19.9155 16.0324 19.9304C17.8125 20.0508 18.7171 19.008 19.1265 18.285C19.2951 17.9872 19.6932 17.9203 19.9552 18.1405C22.7185 20.4633 24.8589 17.3298 25.6912 15.7801C25.9424 15.3126 26.0471 14.7806 25.9956 14.2524L25.6386 10.5939C25.5947 10.1439 25.0548 9.93835 24.7227 10.2453Z" fill="#DD6330"/>
<path d="M25.9956 14.2523L25.6387 10.5937C25.5981 10.1783 25.1352 9.9716 24.803 10.1835C24.8206 11.6146 24.7768 14.0915 24.2943 14.8252C23.401 16.1838 21.6976 17.8817 19.0928 16.6856C18.7818 16.5428 18.4327 16.5323 18.2641 16.8301C17.8547 17.553 16.9501 18.5958 15.17 18.4754C14.9504 18.4606 14.7435 18.5799 14.6457 18.777C14.04 19.9971 11.7099 24.0822 7.58101 24.269C4.86426 24.3919 3.07428 23.5728 2.00019 22.2993C2.81523 24.3534 4.79284 25.8889 8.44351 25.7237C12.5724 25.537 14.9025 21.4518 15.5082 20.2318C15.606 20.0346 15.8129 19.9153 16.0325 19.9302C17.8126 20.0506 18.7172 19.0078 19.1265 18.2848C19.2952 17.987 19.6933 17.9201 19.9553 18.1404C22.7186 20.4631 24.859 17.3296 25.6913 15.7799C25.9424 15.3125 26.0472 14.7805 25.9956 14.2523Z" fill="#C05325"/>
</svg>
