<svg width="26" height="27" viewBox="0 0 26 27" fill="none" xmlns="http://www.w3.org/2000/svg">
<path d="M16.4368 4.75219C16.1651 5.04181 15.839 5.27508 15.4771 5.43868C15.1153 5.60229 14.7248 5.69301 14.3278 5.70568C13.5262 5.73128 12.7473 5.43739 12.1624 4.88866C11.5775 4.33994 11.2345 3.58133 11.2089 2.77972C11.1833 1.97812 11.4772 1.19918 12.0259 0.614258C12.0153 0.617433 12.005 0.621923 11.9944 0.625198C11.4061 0.807601 10.8762 1.14181 10.4581 1.59418C10.04 2.04655 9.74843 2.60109 9.61284 3.20198C9.47725 3.80286 9.50238 4.42886 9.6857 5.01694C9.86902 5.60502 10.2041 6.13441 10.6571 6.5518C11.1101 6.96919 11.6651 7.25985 12.2662 7.3945C12.8673 7.52915 13.4933 7.50304 14.081 7.3188C14.6688 7.13456 15.1977 6.79869 15.6144 6.34502C16.0311 5.89135 16.3209 5.3359 16.4546 4.73459C16.4489 4.74069 16.4425 4.74614 16.4368 4.75219Z" fill="#F9DD92"/>
<path d="M13.6734 6.72834C12.0026 6.72834 10.6482 5.23664 10.6482 3.39656C10.6407 2.86157 10.7586 2.33227 10.9924 1.851C11.2261 1.36973 11.5693 0.949868 11.9944 0.625C11.4061 0.807403 10.8762 1.14162 10.4581 1.59398C10.04 2.04635 9.74843 2.60089 9.61284 3.20178C9.47725 3.80266 9.50238 4.42866 9.6857 5.01674C9.86902 5.60482 10.2041 6.13421 10.6571 6.5516C11.1101 6.969 11.6651 7.25966 12.2662 7.39431C12.8673 7.52896 13.4933 7.50285 14.081 7.31861C14.6688 7.13436 15.1977 6.7985 15.6144 6.34482C16.0311 5.89115 16.3209 5.3357 16.4546 4.7344C16.4489 4.74049 16.4425 4.74594 16.4368 4.75199C16.2265 5.31993 15.8509 5.8118 15.3583 6.16409C14.8657 6.51638 14.2788 6.71292 13.6734 6.72834Z" fill="#F9DD92"/>
<path d="M10.6483 3.39675C10.6483 5.23684 12.0027 6.72853 13.6735 6.72853C14.2789 6.71312 14.8657 6.51658 15.3583 6.16429C15.8509 5.81199 16.2266 5.32013 16.4369 4.75219C16.1652 5.04181 15.8391 5.27508 15.4772 5.43868C15.1154 5.60229 14.7248 5.69301 14.3279 5.70569C13.5263 5.73128 12.7474 5.43739 12.1624 4.88866C11.5775 4.33994 11.2345 3.58133 11.209 2.77972C11.1834 1.97812 11.4773 1.19918 12.026 0.614258C12.0154 0.617433 12.0051 0.621923 11.9945 0.625198C11.5694 0.950066 11.2262 1.36993 10.9925 1.8512C10.7587 2.33247 10.6408 2.86177 10.6483 3.39675Z" fill="#E0BB68"/>
<path d="M14.2757 2.58418L13.9304 1.69043L13.5852 2.58418L12.6284 2.63643L13.3717 3.24093L13.1257 4.16693L13.9304 3.64693L14.7352 4.16693L14.4892 3.24093L15.2324 2.63643L14.2757 2.58418Z" fill="#F9DD92"/>
<path d="M23.0306 24.2032L18.7078 20.4749C18.6551 20.4295 18.5869 20.406 18.5173 20.4095C18.4478 20.413 18.3822 20.4431 18.3342 20.4936L17.1526 21.7382C17.1177 21.7749 17.0939 21.8206 17.0837 21.8702C17.0735 21.9197 17.0774 21.9712 17.0949 22.0186C17.1124 22.0661 17.1429 22.1077 17.1828 22.1388C17.2228 22.1698 17.2706 22.1891 17.3209 22.1944C18.468 22.3141 19.4429 23.0477 20.0588 23.6419C20.54 24.1025 21.1504 24.4053 21.8083 24.5098L22.8092 24.6757C22.8239 24.6782 22.8387 24.6795 22.8536 24.6795C22.9089 24.6794 22.9629 24.6625 23.0083 24.6309C23.0537 24.5994 23.0884 24.5546 23.1076 24.5028C23.1269 24.451 23.1298 24.3945 23.1161 24.3409C23.1023 24.2873 23.0725 24.2393 23.0306 24.2032Z" fill="#984F01"/>
<path d="M18.0349 20.1073C18.0227 20.0651 17.9997 20.0269 17.9681 19.9964C17.9365 19.9659 17.8974 19.9443 17.8548 19.9337L6.79782 17.1898C6.75573 17.1795 6.7117 17.1803 6.66999 17.192C6.62828 17.2038 6.59032 17.2261 6.55978 17.2568L1.01938 22.8686C0.988457 22.9 0.966351 22.9389 0.955291 22.9815C0.94423 23.024 0.944609 23.0688 0.956388 23.1112C0.968167 23.1536 0.990928 23.1921 1.02237 23.2229C1.05382 23.2537 1.09283 23.2756 1.13547 23.2865L12.2315 26.1162C12.2743 26.1271 12.3191 26.1266 12.3616 26.1146C12.404 26.1025 12.4425 26.0795 12.4731 26.0477L17.9745 20.3501C18.005 20.3185 18.0266 20.2794 18.0373 20.2368C18.0479 20.1942 18.047 20.1495 18.0349 20.1073Z" fill="#CE6C0B"/>
<path d="M17.953 19.9837L12.5403 15.5495C12.5085 15.5234 12.4709 15.5056 12.4306 15.4976L0.562417 13.1396C0.505388 13.1282 0.446195 13.1371 0.395021 13.1647C0.343847 13.1923 0.303891 13.2369 0.282026 13.2908C0.260161 13.3447 0.257754 13.4045 0.27522 13.4599C0.292686 13.5154 0.328933 13.563 0.377724 13.5946L6.63969 17.6525C6.66298 17.6675 6.68859 17.6786 6.71549 17.6853L17.7344 20.4197C17.7895 20.4334 17.8476 20.4279 17.8991 20.4042C17.9507 20.3804 17.9926 20.3399 18.0181 20.2891C18.0435 20.2384 18.0509 20.1805 18.0391 20.125C18.0273 20.0695 17.9969 20.0196 17.953 19.9837Z" fill="#FBA635"/>
<path d="M24.8838 13.3555C24.8719 13.3137 24.8486 13.276 24.8166 13.2465C24.7846 13.217 24.7451 13.1969 24.7025 13.1885L13.6337 10.9938C13.5966 10.9864 13.5583 10.9881 13.522 10.9986C13.4857 11.0091 13.4524 11.0282 13.425 11.0542L10.4299 13.9002C10.4054 13.9235 10.3862 13.9518 10.3736 13.9832C10.3609 14.0145 10.3552 14.0482 10.3567 14.082C10.3582 14.1158 10.3669 14.1489 10.3823 14.179C10.3976 14.2091 10.4193 14.2356 10.4457 14.2566L13.4668 15.6881L17.6654 19.9902C17.7098 20.0254 17.7652 20.0435 17.8218 20.0413C17.8783 20.039 17.9322 20.0166 17.9736 19.978L24.8177 13.5931C24.8495 13.5634 24.8725 13.5255 24.8842 13.4836C24.8958 13.4417 24.8957 13.3974 24.8838 13.3555Z" fill="#DDAC4B"/>
<path d="M0.527832 12.6917L11.6988 14.9617C12.3159 15.0871 12.8915 15.3659 13.3725 15.7724L18.0835 19.7535C18.1236 19.7874 18.1733 19.8078 18.2256 19.8119C18.2779 19.8159 18.3302 19.8034 18.375 19.7761C18.4198 19.7488 18.4549 19.7081 18.4753 19.6597C18.4956 19.6114 18.5003 19.5578 18.4885 19.5067C18.3052 18.7071 17.8805 17.9831 17.2719 17.4331L14.0043 14.4798C13.4591 13.9871 12.7887 13.6541 12.0667 13.5173L1.2638 11.4712C1.20801 11.4606 1.15028 11.4693 1.10011 11.4959C1.04995 11.5225 1.01033 11.5654 0.987799 11.6175L0.527832 12.6917Z" fill="#F2CE7C"/>
<path d="M12.2703 26.1226L13.0048 26.1901C13.0349 26.1929 13.0649 26.1942 13.0947 26.1942C13.2254 26.1943 13.3548 26.1677 13.4748 26.116C13.5949 26.0643 13.7031 25.9886 13.7928 25.8935L18.4355 21.0034L22.6085 24.6027C22.6761 24.6609 22.7546 24.7052 22.8395 24.733C22.9243 24.7608 23.0138 24.7714 23.1028 24.7644C23.1918 24.7574 23.2785 24.7328 23.358 24.692C23.4374 24.6513 23.508 24.5952 23.5656 24.5271C23.6232 24.4589 23.6668 24.38 23.6938 24.2948C23.7207 24.2097 23.7305 24.1201 23.7227 24.0312C23.7148 23.9423 23.6894 23.8558 23.6479 23.7767C23.6064 23.6977 23.5496 23.6277 23.4809 23.5707L19.2644 20.0764L24.8961 14.7324C24.991 14.6423 25.0666 14.5338 25.1183 14.4136C25.17 14.2933 25.1967 14.1638 25.1967 14.033C25.1968 13.9021 25.1702 13.7725 25.1186 13.6523C25.0671 13.532 24.9915 13.4234 24.8967 13.3332C24.8505 13.2893 24.7893 13.2647 24.7256 13.2644C24.6619 13.2641 24.6005 13.2882 24.5539 13.3317L18.2366 19.2278L12.9128 14.7286C12.8804 14.7013 12.8417 14.6826 12.8001 14.6743L0.705372 12.2764C0.708009 12.2821 0.668652 12.3489 0.623372 12.4592L0.282552 13.286C0.268471 13.3202 0.262131 13.357 0.263988 13.3939C0.265844 13.4308 0.275851 13.4668 0.293288 13.4994C0.310726 13.5319 0.335161 13.5602 0.364838 13.5822C0.394515 13.6042 0.428696 13.6194 0.464924 13.6266L12.2717 15.9748L17.4262 20.1975L11.8167 26.0101L12.2703 26.1226Z" fill="#E48414"/>
</svg>
