<svg width="27" height="27" viewBox="0 0 27 27" fill="none" xmlns="http://www.w3.org/2000/svg">
<path d="M14.1816 25.9524C20.9914 25.6443 26.2621 19.8742 25.9541 13.0643C25.6461 6.25454 19.8759 0.983812 13.0661 1.29185C6.25628 1.59989 0.985556 7.37005 1.2936 14.1799C1.60164 20.9897 7.37179 26.2604 14.1816 25.9524Z" fill="#C05425"/>
<path d="M10.5605 15.373L16.816 15.0901L17.1598 22.6918L10.9044 22.9748L10.5605 15.373Z" fill="#FCFCFD"/>
<path d="M13.2476 16.9453L14.2819 16.8985L14.55 22.8256L13.5157 22.8724L13.2476 16.9453Z" fill="#F1F3F7"/>
<path d="M10.8651 15.1953L7.9409 16.3805L5.72818 23.1108C8.00244 25.015 10.9799 26.0978 14.1815 25.953L14.0233 22.4559C11.7527 20.6337 10.8651 15.1953 10.8651 15.1953Z" fill="#D2E9F9"/>
<path d="M4.25697 18.5873C3.92927 18.9805 3.6127 19.62 3.31998 20.4229C4.71507 22.5315 6.74759 24.1834 9.1258 25.1123C9.23112 21.2578 9.6488 15.5794 9.6488 15.5794C9.6488 15.5794 5.84996 16.7055 4.25697 18.5873Z" fill="#564646"/>
<path d="M19.5322 15.855L16.5129 14.9387C16.5129 14.9387 16.1199 20.435 14.0232 22.4547L14.1814 25.9518C17.383 25.807 20.2505 24.4598 22.3435 22.358L19.5322 15.855Z" fill="#D2E9F9"/>
<path d="M24.4998 19.4641C24.1365 18.7072 23.7628 18.0825 23.4009 17.7205C21.6445 15.9902 17.7588 15.1953 17.7588 15.1953C17.7588 15.1953 18.6718 20.83 19.1403 24.6421C21.4257 23.5187 23.3008 21.69 24.4998 19.4641Z" fill="#564646"/>
<path d="M13.7328 16.0359C15.5554 15.9534 16.9209 13.4094 16.7826 10.3536C16.6444 7.2978 15.0548 4.88742 13.2322 4.96986C11.4096 5.05231 10.0442 7.59636 10.1824 10.6522C10.3206 13.708 11.9102 16.1183 13.7328 16.0359Z" fill="#FFD6B6"/>
<path d="M10.2774 12.0832C10.5454 11.9975 10.5901 11.3886 10.3774 10.7231C10.1647 10.0575 9.77506 9.58743 9.50712 9.67307C9.23918 9.7587 9.19441 10.3676 9.40712 11.0332C9.61983 11.6987 10.0095 12.1688 10.2774 12.0832Z" fill="#F4C09D"/>
<path d="M17.3737 9.31997C17.0991 9.25887 16.7535 9.76223 16.6017 10.4442C16.45 11.1263 16.5495 11.7287 16.8241 11.7898C17.0987 11.8509 17.4443 11.3475 17.5961 10.6655C17.7478 9.98348 17.6483 9.38107 17.3737 9.31997Z" fill="#F4C09D"/>
<path d="M14.6268 6.7009C14.4783 6.69117 14.3485 6.72995 14.2029 6.78589C13.67 7.00742 13.2274 7.40584 12.7482 7.72365C12.269 8.04146 11.6876 8.28164 11.1227 8.15912C11.6123 8.07117 12.0631 7.85335 12.4438 7.53999C11.7057 7.58983 10.9966 7.91804 10.4607 8.43585C10.5713 7.97019 10.7296 7.46947 11.111 7.17253C11.27 7.05017 11.4633 6.95917 11.6409 6.88533C12.2716 6.64292 12.941 6.53038 13.6164 6.54918L14.6268 6.7009Z" fill="white"/>
<path d="M13.8517 18.6628C14.0059 18.6558 14.1252 18.5252 14.1182 18.371C14.1112 18.2169 13.9806 18.0976 13.8265 18.1046C13.6723 18.1115 13.553 18.2422 13.56 18.3963C13.567 18.5505 13.6976 18.6698 13.8517 18.6628Z" fill="#DEDEDF"/>
<path d="M13.9396 20.6003C14.0938 20.5933 14.2131 20.4627 14.2061 20.3086C14.1991 20.1544 14.0685 20.0351 13.9144 20.0421C13.7602 20.049 13.6409 20.1797 13.6479 20.3338C13.6549 20.488 13.7855 20.6073 13.9396 20.6003Z" fill="#DEDEDF"/>
<path opacity="0.2" d="M10.5908 15.3066C10.5908 15.3066 11.0327 18.1658 13.8239 18.0395C16.615 17.9132 16.797 15.0259 16.797 15.0259L10.5908 15.3066Z" fill="#646B79"/>
<path d="M17.2171 9.03518L15.5205 6.80864C15.5205 6.80864 16.5163 9.18205 16.5758 10.1336C16.6353 11.0851 16.1633 12.291 15.5558 12.6804C15.5558 12.6804 15.0313 11.9967 14.6417 12.113C14.2521 12.2294 13.9865 12.1756 13.9865 12.1756L13.555 12.4583L13.7975 12.7271L14.9834 12.7557C14.9834 12.7557 15.3041 13.3005 15.2496 13.5498C15.1787 13.7998 15.1181 14.2796 14.7479 14.4609C14.3777 14.6421 14.0578 13.7518 14.0578 13.7518L13.204 13.7904C13.204 13.7904 12.9821 14.7053 12.5807 14.5589C12.1956 14.4118 12.092 13.9394 11.9988 13.6968C11.9055 13.4543 12.1922 12.8819 12.1922 12.8819L13.3706 12.7464L13.5879 12.4569L13.1327 12.2142C13.1327 12.2142 12.8894 12.291 12.4745 12.2111C12.076 12.1304 11.6154 12.8587 11.6154 12.8587C10.9744 12.5093 10.3955 11.3509 10.3696 10.4143C10.3429 9.4613 11.1204 7.00768 11.1204 7.00768L9.46303 9.64917C10.0376 9.98512 10.0112 11.2202 10.0112 11.2202C9.93489 12.0792 9.98168 13.1135 10.2471 14.2532C11.1217 17.9482 13.8091 17.7115 13.8091 17.7115C13.8091 17.7115 16.5069 17.7046 17.0443 13.9457C17.2051 12.7703 17.159 11.7524 17.0055 10.9038C17.0047 10.8874 16.6752 9.42164 17.2171 9.03518Z" fill="white"/>
<path d="M9.28577 10.1001C9.36349 9.6359 9.72238 9.93225 9.72238 9.93225C9.68451 9.09491 10.6438 7.75181 13.4835 7.24496C16.324 6.75452 16.9458 9.58905 16.9458 9.58905L17.3928 9.28914C19.4392 5.79101 16.8488 2.71649 14.1003 2.3308C11.3518 1.94512 8.21843 3.96239 7.77896 6.97654C7.40152 9.54367 8.9513 10.7075 9.40871 10.9994C9.39229 11.0001 9.2484 10.365 9.28577 10.1001Z" fill="#393D47"/>
<path d="M17.6503 8.79883C17.6503 8.79883 18.0151 5.95258 15.4928 5.4744C12.9533 4.98055 10.1766 7.24492 10.0481 7.67848C10.0481 7.67848 12.8273 4.01558 15.5997 4.5647C18.3884 5.11309 18.1141 7.05039 18.1141 7.05039C18.1141 7.05039 17.9631 8.43919 17.6503 8.79883Z" fill="#333842"/>
<path d="M15.597 3.77585C15.597 3.77585 10.8281 4.18899 9.2062 8.70441C9.2062 8.70441 9.86405 3.60743 15.597 3.77585Z" fill="#333842"/>
</svg>
