<svg width="27" height="28" viewBox="0 0 27 28" fill="none" xmlns="http://www.w3.org/2000/svg">
<path d="M16.9131 5.48357C16.6548 5.78517 16.3395 6.03294 15.9855 6.21272C15.6314 6.39251 15.2453 6.50079 14.8494 6.53139C14.0498 6.59318 13.2583 6.33478 12.6492 5.81305C12.0401 5.29132 11.6632 4.54899 11.6014 3.74936C11.5396 2.94972 11.798 2.1583 12.3197 1.54918C12.3093 1.55283 12.2992 1.55778 12.2888 1.56153C11.7093 1.77034 11.195 2.12815 10.7978 2.59895C10.4005 3.06975 10.1344 3.6369 10.0261 4.2433C9.91777 4.84969 9.97117 5.47392 10.1809 6.05311C10.3906 6.63231 10.7492 7.14602 11.2206 7.54251C11.692 7.93901 12.2596 8.20429 12.8662 8.31164C13.4727 8.41899 14.0969 8.36462 14.6757 8.15401C15.2546 7.94339 15.7678 7.58397 16.1635 7.11193C16.5593 6.6399 16.8237 6.07191 16.9301 5.46518C16.9247 5.47152 16.9185 5.47726 16.9131 5.48357Z" fill="#F9DD92"/>
<path d="M14.2418 7.5816C12.5728 7.6571 11.1523 6.22813 11.0692 4.38993C11.0375 3.85583 11.1314 3.32174 11.3432 2.8304C11.5549 2.33906 11.8788 1.90411 12.2888 1.56037C11.7093 1.76917 11.195 2.12699 10.7978 2.59779C10.4005 3.06858 10.1344 3.63574 10.0261 4.24213C9.91777 4.84853 9.97116 5.47276 10.1809 6.05195C10.3906 6.63114 10.7492 7.14486 11.2206 7.54135C11.692 7.93785 12.2596 8.20313 12.8662 8.31048C13.4727 8.41783 14.0969 8.36346 14.6757 8.15285C15.2546 7.94223 15.7678 7.58281 16.1635 7.11077C16.5593 6.63873 16.8237 6.07075 16.9301 5.46402C16.9247 5.47036 16.9185 5.4761 16.9131 5.4824C16.7287 6.05926 16.3757 6.5676 15.8995 6.94179C15.4233 7.31598 14.8459 7.53885 14.2418 7.5816Z" fill="#F9DD92"/>
<path d="M11.0694 4.39097C11.1526 6.22917 12.573 7.65814 14.2421 7.58264C14.8462 7.53988 15.4236 7.31702 15.8997 6.94283C16.3759 6.56864 16.729 6.0603 16.9133 5.48344C16.655 5.78505 16.3398 6.03281 15.9857 6.2126C15.6316 6.39238 15.2456 6.50067 14.8496 6.53126C14.05 6.59305 13.2586 6.33466 12.6495 5.81293C12.0403 5.2912 11.6634 4.54886 11.6016 3.74923C11.5399 2.9496 11.7982 2.15817 12.32 1.54906C12.3096 1.55271 12.2994 1.55766 12.289 1.56141C11.879 1.90515 11.5552 2.3401 11.3434 2.83144C11.1316 3.32278 11.0378 3.85687 11.0694 4.39097Z" fill="#E0BB68"/>
<path d="M14.6567 3.4141L14.2714 2.53687L13.9669 3.44531L13.0135 3.54074L13.7833 4.11103L13.5794 5.0472L14.3598 4.49137L15.1872 4.97447L14.8996 4.06053L15.6148 3.42307L14.6567 3.4141Z" fill="#F9DD92"/>
<path d="M24.3795 24.6168L19.8927 21.0877C19.838 21.0447 19.7688 21.0244 19.6994 21.031C19.6301 21.0376 19.566 21.0706 19.5204 21.1232L18.3962 22.42C18.363 22.4582 18.3412 22.505 18.3333 22.555C18.3253 22.6049 18.3315 22.6561 18.3512 22.7028C18.3708 22.7494 18.4031 22.7896 18.4445 22.8188C18.4858 22.848 18.5344 22.8651 18.5849 22.8681C19.7363 22.9359 20.7433 23.6247 21.3854 24.1904C21.887 24.6288 22.5104 24.9037 23.1724 24.9784L24.1797 25.0989C24.1945 25.1007 24.2094 25.1013 24.2243 25.1006C24.2795 25.0981 24.3327 25.0788 24.3766 25.0452C24.4206 25.0116 24.4532 24.9653 24.4701 24.9127C24.487 24.86 24.4873 24.8035 24.4712 24.7506C24.455 24.6977 24.423 24.651 24.3795 24.6168Z" fill="#984F01"/>
<path d="M19.2033 20.7491C19.1893 20.7075 19.1645 20.6704 19.1316 20.6414C19.0986 20.6123 19.0586 20.5925 19.0156 20.5839L7.84588 18.3424C7.80337 18.334 7.75941 18.3368 7.71828 18.3504C7.67714 18.364 7.64023 18.388 7.61112 18.4201L2.32996 24.2766C2.30048 24.3092 2.28016 24.3491 2.27103 24.3922C2.26191 24.4352 2.26431 24.4799 2.27799 24.5217C2.29168 24.5635 2.31616 24.601 2.34896 24.6303C2.38176 24.6597 2.42173 24.6798 2.46481 24.6887L13.6774 27.0141C13.7206 27.0232 13.7654 27.0206 13.8072 27.0066C13.8491 26.9927 13.8865 26.9679 13.9157 26.9348L19.1539 20.9944C19.183 20.9615 19.2029 20.9215 19.2115 20.8784C19.2202 20.8353 19.2174 20.7908 19.2033 20.7491Z" fill="#CE6C0B"/>
<path d="M19.1165 20.6304L13.509 16.4454C13.476 16.4208 13.4376 16.4047 13.397 16.3985L1.4344 14.5792C1.37692 14.5704 1.31819 14.582 1.26831 14.6119C1.21844 14.6418 1.18054 14.6881 1.16113 14.7429C1.14172 14.7977 1.14202 14.8576 1.16197 14.9122C1.18193 14.9668 1.22029 15.0127 1.27046 15.0421L7.70939 18.8129C7.73334 18.8268 7.75943 18.8368 7.78661 18.8423L18.9178 21.0759C18.9735 21.0871 19.0313 21.079 19.0817 21.0529C19.1321 21.0269 19.1722 20.9845 19.1953 20.9326C19.2184 20.8808 19.2232 20.8226 19.2089 20.7677C19.1946 20.7128 19.162 20.6644 19.1165 20.6304Z" fill="#FBA635"/>
<path d="M25.7406 13.6957C25.7267 13.6544 25.7018 13.6178 25.6685 13.5898C25.6352 13.5618 25.5948 13.5435 25.5518 13.537L14.3952 11.8447C14.3578 11.839 14.3196 11.8424 14.2838 11.8546C14.248 11.8667 14.2157 11.8873 14.1894 11.9145L11.3261 14.893C11.3026 14.9173 11.2847 14.9465 11.2735 14.9784C11.2623 15.0103 11.2581 15.0442 11.2611 15.0779C11.2641 15.1116 11.2743 15.1442 11.291 15.1736C11.3077 15.203 11.3306 15.2285 11.358 15.2483L14.4406 16.5417L18.8294 20.6498C18.8752 20.6829 18.9315 20.6985 18.9879 20.6937C19.0442 20.6889 19.097 20.6641 19.1367 20.6236L25.6853 13.936C25.7157 13.9049 25.7369 13.866 25.7467 13.8236C25.7565 13.7812 25.7543 13.7369 25.7406 13.6957Z" fill="#DDAC4B"/>
<path d="M1.37957 14.1338L12.6417 15.8967C13.2639 15.9941 13.8515 16.2466 14.3504 16.6309L19.2364 20.3951C19.278 20.4271 19.3286 20.4453 19.381 20.447C19.4335 20.4487 19.4851 20.4338 19.5286 20.4045C19.5722 20.3752 19.6054 20.3329 19.6235 20.2837C19.6417 20.2345 19.6439 20.1808 19.6299 20.1302C19.4106 19.3397 18.9536 18.6357 18.3207 18.1137L14.923 15.3111C14.3561 14.8435 13.6714 14.5412 12.9439 14.4372L2.05963 12.8813C2.00342 12.8732 1.94615 12.8845 1.89723 12.9134C1.84832 12.9422 1.81068 12.9869 1.79053 13.04L1.37957 14.1338Z" fill="#F2CE7C"/>
<path d="M13.7168 27.0199L14.4536 27.0542C14.4837 27.0556 14.5138 27.0556 14.5435 27.0543C14.6741 27.0485 14.8021 27.0161 14.9197 26.959C15.0373 26.9019 15.142 26.8214 15.2273 26.7224L19.6443 21.6274L23.9757 25.0344C24.0459 25.0896 24.1263 25.1303 24.2123 25.1542C24.2983 25.1781 24.3882 25.1847 24.4768 25.1737C24.5654 25.1626 24.6509 25.1342 24.7284 25.0899C24.8059 25.0456 24.8739 24.9864 24.9284 24.9157C24.9829 24.8449 25.0228 24.7641 25.0459 24.6779C25.069 24.5917 25.0748 24.5017 25.0629 24.4132C25.051 24.3247 25.0217 24.2395 24.9767 24.1624C24.9317 24.0853 24.8718 24.0179 24.8006 23.9641L20.4304 20.6639L25.8149 15.0709C25.9057 14.9766 25.9763 14.8648 26.0225 14.7424C26.0687 14.6199 26.0895 14.4893 26.0836 14.3586C26.0778 14.2278 26.0454 14.0996 25.9884 13.9818C25.9315 13.864 25.8511 13.7589 25.7523 13.6731C25.7042 13.6313 25.6419 13.6095 25.5783 13.6121C25.5146 13.6147 25.4543 13.6415 25.4098 13.687L19.3654 19.8626L13.8437 15.6086C13.8101 15.5828 13.7706 15.5658 13.7287 15.5595L1.53793 13.7105C1.54082 13.7161 1.50452 13.7846 1.46428 13.8969L1.16116 14.7382C1.14864 14.773 1.14397 14.8101 1.14749 14.8468C1.15102 14.8836 1.16264 14.9191 1.18153 14.9509C1.20042 14.9826 1.22611 15.0098 1.25675 15.0304C1.28739 15.0511 1.32222 15.0646 1.35874 15.0702L13.2595 16.8825L18.5996 20.868L13.2586 26.9281L13.7168 27.0199Z" fill="#E48414"/>
</svg>
