<svg width="26" height="26" viewBox="0 0 26 26" fill="none" xmlns="http://www.w3.org/2000/svg">
<path d="M13.0606 25.7941C19.9804 25.7941 25.59 20.1845 25.59 13.2647C25.59 6.34495 19.9804 0.735352 13.0606 0.735352C6.14085 0.735352 0.53125 6.34495 0.53125 13.2647C0.53125 20.1845 6.14085 25.7941 13.0606 25.7941Z" fill="#009498"/>
<path d="M9.87451 14.9004H16.231V22.6249H9.87451V14.9004Z" fill="#FCFCFD"/>
<path d="M12.5273 16.6182H13.5784V22.6409H12.5273V16.6182Z" fill="#F1F3F7"/>
<path d="M10.1905 14.7324L7.17076 15.8002L4.61816 22.5237C6.83708 24.5591 9.80677 25.7937 13.0601 25.7937V22.24C10.8411 20.2881 10.1905 14.7324 10.1905 14.7324Z" fill="#D2E9F9"/>
<path d="M3.33419 17.8693C2.98383 18.253 2.63348 18.887 2.2998 19.6878C3.61781 21.89 5.60316 23.6585 7.97223 24.7095C8.25585 20.8056 8.93988 15.0664 8.93988 15.0664C8.93988 15.0664 5.03592 16.0341 3.33419 17.8693Z" fill="#564646"/>
<path d="M18.9494 15.8002L15.9296 14.7324C15.9296 14.7324 15.279 20.2881 13.0601 22.24V25.7937C16.3134 25.7937 19.283 24.5591 21.502 22.5237L18.9494 15.8002Z" fill="#D2E9F9"/>
<path d="M23.8217 19.6878C23.488 18.9037 23.1377 18.2531 22.7873 17.8693C21.0856 16.0341 17.1816 15.0498 17.1816 15.0498C17.1816 15.0498 17.849 20.8056 18.1493 24.6929C20.5184 23.6585 22.5037 21.8901 23.8217 19.6878Z" fill="#564646"/>
<path d="M13.0609 15.7174C14.913 15.7174 16.4143 13.2002 16.4143 10.095C16.4143 6.98988 14.913 4.47266 13.0609 4.47266C11.2089 4.47266 9.70752 6.98988 9.70752 10.095C9.70752 13.2002 11.2089 15.7174 13.0609 15.7174Z" fill="#FFD6B6"/>
<path d="M9.73705 11.5514C10.0127 11.4768 10.086 10.8614 9.90085 10.1767C9.71568 9.49208 9.34211 8.99749 9.06647 9.07204C8.79083 9.1466 8.7175 9.76205 8.90267 10.4467C9.08785 11.1314 9.46141 11.6259 9.73705 11.5514Z" fill="#F4C09D"/>
<path d="M17.0602 9.07414C16.7845 8.99959 16.411 9.49417 16.2258 10.1788C16.0406 10.8635 16.1139 11.4789 16.3896 11.5535C16.6652 11.628 17.0388 11.1335 17.224 10.4488C17.4091 9.76415 17.3358 9.14869 17.0602 9.07414Z" fill="#F4C09D"/>
<path d="M14.3947 6.29241C14.2445 6.27572 14.1111 6.30909 13.9609 6.35914C13.4104 6.55934 12.9432 6.94307 12.4427 7.24337C11.9422 7.54368 11.3416 7.76056 10.7744 7.61041C11.2749 7.54368 11.742 7.34347 12.1424 7.04317C11.3917 7.05985 10.6576 7.36016 10.0903 7.86066C10.2238 7.39352 10.4073 6.89301 10.8077 6.60939C10.9746 6.49261 11.1748 6.40919 11.3583 6.34246C12.0089 6.12557 12.693 6.04215 13.377 6.0922L14.3947 6.29241Z" fill="white"/>
<path d="M13.061 18.3876C13.2176 18.3876 13.3446 18.2606 13.3446 18.1039C13.3446 17.9473 13.2176 17.8203 13.061 17.8203C12.9043 17.8203 12.7773 17.9473 12.7773 18.1039C12.7773 18.2606 12.9043 18.3876 13.061 18.3876Z" fill="#DEDEDF"/>
<path d="M13.061 20.3553C13.2176 20.3553 13.3446 20.2283 13.3446 20.0717C13.3446 19.9151 13.2176 19.7881 13.061 19.7881C12.9043 19.7881 12.7773 19.9151 12.7773 20.0717C12.7773 20.2283 12.9043 20.3553 13.061 20.3553Z" fill="#DEDEDF"/>
<path opacity="0.2" d="M9.90771 14.833C9.90771 14.833 10.2247 17.7526 13.0609 17.7526C15.8971 17.7526 16.2141 14.833 16.2141 14.833H9.90771Z" fill="#646B79"/>
<path d="M16.9148 8.77711L15.2965 6.44141C15.2965 6.44141 16.1974 8.8939 16.2141 9.86155C16.2308 10.8292 15.6969 12.0304 15.0629 12.3975C15.0629 12.3975 14.5624 11.6801 14.162 11.7802C13.7616 11.8803 13.4946 11.8135 13.4946 11.8135L13.0442 12.0805L13.2778 12.3641L14.479 12.4475C14.479 12.4475 14.7793 13.0147 14.7125 13.265C14.6291 13.5153 14.5457 13.9991 14.162 14.1659C13.7783 14.3328 13.4946 13.4152 13.4946 13.4152H12.6271C12.6271 13.4152 12.3602 14.3328 11.9598 14.1659C11.576 13.9991 11.4926 13.5153 11.4092 13.265C11.3258 13.0147 11.6428 12.4475 11.6428 12.4475L12.844 12.3641L13.0776 12.0805L12.6271 11.8135C12.6271 11.8135 12.3768 11.8803 11.9598 11.7802C11.5593 11.6801 11.0588 12.3975 11.0588 12.3975C10.4249 12.0137 9.89098 10.8125 9.90767 9.86155C9.92435 8.8939 10.8253 6.44141 10.8253 6.44141L9.02344 9.04405C9.59068 9.41109 9.50726 10.6624 9.50726 10.6624C9.39048 11.5299 9.39048 12.581 9.60736 13.7488C10.3248 17.536 13.0609 17.4192 13.0609 17.4192C13.0609 17.4192 15.797 17.536 16.5144 13.7488C16.7313 12.5643 16.7313 11.5299 16.6145 10.6624C16.6145 10.6457 16.3475 9.14415 16.9148 8.77711Z" fill="white"/>
<path d="M8.8236 9.4943C8.9237 9.02716 9.27405 9.34415 9.27405 9.34415C9.27405 8.49328 10.3084 7.17528 13.2114 6.79155C16.1143 6.42451 16.6148 9.32746 16.6148 9.32746L17.082 9.04384C19.3176 5.59033 16.8317 2.35371 14.0622 1.83652C11.2928 1.31933 8.02278 3.22126 7.43886 6.25768C6.93835 8.84364 8.45656 10.0949 8.90702 10.4119C8.89033 10.4119 8.77355 9.76124 8.8236 9.4943Z" fill="#393D47"/>
<path d="M17.3624 8.56045C17.3624 8.56045 17.8629 5.69087 15.327 5.09026C12.7744 4.47297 9.85474 6.64184 9.70459 7.07561C9.70459 7.07561 12.691 3.48863 15.4771 4.17266C18.28 4.85669 17.9129 6.80867 17.9129 6.80867C17.9129 6.80867 17.696 8.21009 17.3624 8.56045Z" fill="#333842"/>
<path d="M15.5115 3.3717C15.5115 3.3717 10.6566 3.5719 8.80469 8.07648C8.80469 8.07648 9.7056 2.93792 15.5115 3.3717Z" fill="#333842"/>
</svg>
