<svg width="34" height="34" viewBox="0 0 34 34" fill="none" xmlns="http://www.w3.org/2000/svg">
<path d="M19.3857 1.11474C19.9299 0.0269357 21.5695 0.414556 21.569 1.6309L21.5643 13.1848C21.5641 13.6215 21.8107 14.0207 22.2012 14.2161L32.5341 19.3855C33.6219 19.9297 33.2343 21.5693 32.018 21.5688L20.4641 21.5641C20.0274 21.5639 19.6282 21.8105 19.4328 22.201L14.2634 32.5339C13.7192 33.6217 12.0796 33.2341 12.0801 32.0178L12.0848 20.4639C12.085 20.0272 11.8384 19.628 11.4479 19.4326L1.11494 14.2632C0.0271357 13.719 0.414756 12.0794 1.6311 12.0799L13.185 12.0846C13.6217 12.0848 14.0209 11.8382 14.2163 11.4477L19.3857 1.11474Z" fill="#DAB95E"/>
</svg>
